<!--?xml version="1.0" encoding="utf-8"?-->
<!-- Svg Vector Icons : http://www.onlinewebfonts.com/icon -->

<svg version="1.1" xmlns="http://www.w3.org/2000/svg" xmlns:xlink="http://www.w3.org/1999/xlink" x="0px" y="0px" viewBox="0 0 256 256" enable-background="new 0 0 256 256" xml:space="preserve">
<metadata> Svg Vector Icons : http://www.onlinewebfonts.com/icon </metadata>
<g><g><g><path fill="#9a9956" data-title="Layer 0" xs="0" d="M191.6,92.1c0,0,15.2-11.8,35-3c-30.5-32.1-43.4-8-43.4-8S166.4,54.5,139,56.6c-15.8-13.2-40.6-12.8-40.6-12.8s1.5-27.5,23-32.9c-30-6.7-48.4,29.3-48.4,29.3s-13-29.4-43.5,9.8c19.8-10.7,35,3.7,35,3.7s-28,8.5-33,48.1c10.5-15.8,34-24.3,34-24.3s-14.5,19.5,0,58.6c1.2-23.3,17-56.1,17-56.1s0.4,0.2,1,0.4c10.6,18.7,23.5,55,16.7,123.8c-25.6,3.8-43,11.2-43,19.7C57.1,236,93.8,246,139,246c45.2,0,81.8-10,81.8-22.3c0-9-19.7-16.8-47.9-20.3c-5.6-45.3-1.9-71.1,2.8-85.9c4.4,8.1,13.9,27.4,14.8,42c14.5-32,0-47.9,0-47.9s23.5,6.9,34,19.9C219.6,99.1,191.6,92.1,191.6,92.1z M136.9,112.9c-4.9,4.3-9.9,9.6-13.8,15.4c-3.9-9.5-8.3-18-12.8-25.6c3.5-1.4,7.1-2.4,10.7-3.1C127.4,103.9,133.2,108.4,136.9,112.9z M133.2,98.4c11.7-0.2,20.5,2.1,20.5,2.1s-7.2,4.2-15.4,11.1C137.3,107,135.4,102.6,133.2,98.4z M160.6,118.3c-10.1,14.1-20.2,35.1-23.9,63.6c-1.9-17.2-5.8-32.8-10.9-46.6C135.7,128.7,150.2,122.4,160.6,118.3z M147.8,67.6c-1.5-2.9-3.3-5.4-5.4-7.7c14,7.5,15.2,24.2,15.2,24.2s-15.7-0.2-30.1,5.2c-11-15.2-25.3-25.4-25.3-25.4S126.7,56,147.8,67.6z M100.5,88.2c4.6,2.3,9.6,5,14.5,7.9c-2.1,1.6-3.9,3.5-5.5,5.6C106.6,96.8,103.6,92.2,100.5,88.2z M200.3,215c0,6.3-27.4,11.5-61.2,11.5c-33.8,0-61.3-5.2-61.3-11.5c0-3.5,8.6-6.7,22.2-8.8c-0.2,2-0.3,3.8-0.6,5.8l0,0l0,0c0,3.2,16.8,5.7,37.4,5.7c20.6,0,37.4-2.6,37.4-5.7l0,0l0,0c-0.3-2.2-0.6-4.3-0.8-6.5C189.5,207.6,200.3,211.1,200.3,215z"/></g><g></g><g></g><g></g><g></g><g></g><g></g><g></g><g></g><g></g><g></g><g></g><g></g><g></g><g></g><g></g></g></g>
</svg>